<svg width="31" height="31" viewBox="0 0 31 31" fill="none" xmlns="http://www.w3.org/2000/svg">
<g clip-path="url(#clip0_2_625)">
<path d="M8.96221 17.6297L14.97 23.8111C15.0847 23.9289 15.2428 23.9971 15.4102 24.0002C15.4412 24.0002 15.4722 23.9971 15.5032 23.994C15.5311 23.9971 15.5621 24.0002 15.59 24.0002H15.5962C15.7605 24.0002 15.9186 23.932 16.0364 23.8111L22.0349 17.6359L24.2545 15.4163C26.1765 13.4943 26.1765 10.3664 24.2545 8.44436C23.3245 7.51436 22.0845 6.99976 20.7701 6.99976C19.4526 6.99976 18.2157 7.51126 17.2857 8.44436L15.5001 10.2269L13.7176 8.44436C12.7876 7.51436 11.5476 6.99976 10.2332 6.99976C8.91571 6.99976 7.67881 7.51126 6.74881 8.44436C4.82681 10.3664 4.82681 13.4943 6.74881 15.4163L8.96221 17.6297ZM7.62301 9.32166C8.34221 8.60246 9.28771 8.24286 10.2332 8.24286C11.1787 8.24286 12.1242 8.60246 12.8434 9.32166L15.063 11.5413C15.3048 11.7831 15.6985 11.7831 15.9403 11.5413L18.1599 9.32166C19.5983 7.88326 21.9388 7.88326 23.3772 9.32166C24.8156 10.7601 24.8156 13.1006 23.3772 14.539L21.1514 16.7648L15.5001 22.5804L9.84571 16.7586L7.62611 14.539C6.18461 13.1006 6.18461 10.7601 7.62301 9.32166Z" fill="black"/>
</g>
<defs>
<clipPath id="clip0_2_625">
<rect width="31" height="31" fill="white"/>
</clipPath>
</defs>
</svg>