<svg width="31" height="31" viewBox="0 0 31 31" fill="none" xmlns="http://www.w3.org/2000/svg">
<path d="M19.8402 9.92008C19.8402 7.52688 17.8934 5.58008 15.5002 5.58008C13.107 5.58008 11.1602 7.52688 11.1602 9.92008C11.1602 12.3133 13.107 14.2601 15.5002 14.2601C17.8934 14.2601 19.8402 12.3133 19.8402 9.92008ZM12.4002 9.92008C12.4002 8.21198 13.7921 6.82008 15.5002 6.82008C17.2083 6.82008 18.6002 8.21198 18.6002 9.92008C18.6002 11.6282 17.2083 13.0201 15.5002 13.0201C13.7921 13.0201 12.4002 11.6282 12.4002 9.92008Z" fill="black"/>
<path d="M6.8201 22.5185V24.4901C6.8201 24.8311 7.0991 25.1101 7.4401 25.1101H23.5601C23.9011 25.1101 24.1801 24.8311 24.1801 24.4901V22.5185C24.1801 18.8202 21.17 15.8101 17.4717 15.8101H13.5285C9.8302 15.8101 6.8201 18.8202 6.8201 22.5185ZM13.5285 17.0501H17.4717C20.488 17.0501 22.9401 19.5022 22.9401 22.5185V23.8701H8.0601V22.5185C8.0601 19.5022 10.5122 17.0501 13.5285 17.0501Z" fill="black"/>
</svg>
