<svg width="31" height="31" viewBox="0 0 31 31" fill="none" xmlns="http://www.w3.org/2000/svg">
<path d="M9.4968 24.117H20.4832C22.4114 24.117 23.98 22.6288 23.98 20.7995V10.8822C23.98 10.5586 23.701 10.2939 23.36 10.2939H19.64V9.41162C19.64 6.97935 17.5537 5 14.99 5C12.4263 5 10.34 6.97935 10.34 9.41162V10.2939H6.62C6.279 10.2939 6 10.5586 6 10.8822V20.7995C6 22.6288 7.5686 24.117 9.4968 24.117ZM11.58 9.41162C11.58 7.62639 13.1083 6.17643 14.99 6.17643C16.8717 6.17643 18.4 7.62639 18.4 9.41162V10.2939H11.58V9.41162ZM7.24 11.4704H10.34V12.9409C10.34 13.2644 10.619 13.5291 10.96 13.5291C11.301 13.5291 11.58 13.2644 11.58 12.9409V11.4704H18.4V12.9409C18.4 13.2644 18.679 13.5291 19.02 13.5291C19.361 13.5291 19.64 13.2644 19.64 12.9409V11.4704H22.74V20.7995C22.74 21.9789 21.7263 22.9406 20.4832 22.9406H9.4968C8.2537 22.9406 7.24 21.9789 7.24 20.7995V11.4704Z" fill="black"/>
</svg>
